<mxfile host="app.diagrams.net" modified="2023-03-21T03:27:56.792Z" agent="5.0 (Windows)" etag="V45MPNg68EQqmCVssSMW" version="20.5.3" type="github">
  <diagram id="4-aUEYI5t6EKSX0zZO9d" name="第 1 页">
    <mxGraphModel dx="640" dy="338" grid="1" gridSize="10" guides="1" tooltips="1" connect="1" arrows="1" fold="1" page="1" pageScale="1" pageWidth="827" pageHeight="1169" math="0" shadow="0">
      <root>
        <mxCell id="0" />
        <mxCell id="1" parent="0" />
        <mxCell id="prOz0WuTz6ROqYTalhhL-1" value="" style="rounded=0;whiteSpace=wrap;html=1;dashed=1;fillColor=#f5f5f5;fontColor=#333333;strokeColor=#666666;" vertex="1" parent="1">
          <mxGeometry x="90" y="70" width="500" height="280" as="geometry" />
        </mxCell>
        <mxCell id="prOz0WuTz6ROqYTalhhL-9" value="" style="endArrow=none;html=1;rounded=0;exitX=-0.004;exitY=0.182;exitDx=0;exitDy=0;exitPerimeter=0;" edge="1" parent="1" source="prOz0WuTz6ROqYTalhhL-1">
          <mxGeometry width="50" height="50" relative="1" as="geometry">
            <mxPoint x="40" y="120" as="sourcePoint" />
            <mxPoint x="590" y="120" as="targetPoint" />
          </mxGeometry>
        </mxCell>
        <mxCell id="prOz0WuTz6ROqYTalhhL-10" value="客户端中间件" style="text;html=1;strokeColor=none;fillColor=none;align=center;verticalAlign=middle;whiteSpace=wrap;rounded=0;dashed=1;" vertex="1" parent="1">
          <mxGeometry x="295" y="80" width="90" height="30" as="geometry" />
        </mxCell>
        <mxCell id="prOz0WuTz6ROqYTalhhL-11" value="" style="rounded=0;whiteSpace=wrap;html=1;dashed=1;fillColor=#d5e8d4;strokeColor=#82b366;" vertex="1" parent="1">
          <mxGeometry x="100" y="130" width="230" height="210" as="geometry" />
        </mxCell>
        <mxCell id="prOz0WuTz6ROqYTalhhL-12" value="" style="rounded=0;whiteSpace=wrap;html=1;dashed=1;fillColor=#f8cecc;strokeColor=#b85450;" vertex="1" parent="1">
          <mxGeometry x="350" y="130" width="230" height="210" as="geometry" />
        </mxCell>
        <mxCell id="prOz0WuTz6ROqYTalhhL-13" value="消费部分功能" style="text;html=1;strokeColor=none;fillColor=none;align=center;verticalAlign=middle;whiteSpace=wrap;rounded=0;dashed=1;" vertex="1" parent="1">
          <mxGeometry x="170" y="130" width="90" height="30" as="geometry" />
        </mxCell>
        <mxCell id="prOz0WuTz6ROqYTalhhL-14" value="生产部分功能" style="text;html=1;strokeColor=none;fillColor=none;align=center;verticalAlign=middle;whiteSpace=wrap;rounded=0;dashed=1;" vertex="1" parent="1">
          <mxGeometry x="420" y="130" width="90" height="30" as="geometry" />
        </mxCell>
        <mxCell id="prOz0WuTz6ROqYTalhhL-15" value="管理分区生产策略" style="rounded=0;whiteSpace=wrap;html=1;dashed=1;" vertex="1" parent="1">
          <mxGeometry x="130" y="170" width="70" height="60" as="geometry" />
        </mxCell>
        <mxCell id="prOz0WuTz6ROqYTalhhL-16" value="集群主题分区切换" style="rounded=0;whiteSpace=wrap;html=1;dashed=1;" vertex="1" parent="1">
          <mxGeometry x="225" y="170" width="70" height="60" as="geometry" />
        </mxCell>
        <mxCell id="prOz0WuTz6ROqYTalhhL-17" value="集群分组策略" style="rounded=0;whiteSpace=wrap;html=1;dashed=1;" vertex="1" parent="1">
          <mxGeometry x="130" y="250" width="70" height="60" as="geometry" />
        </mxCell>
        <mxCell id="prOz0WuTz6ROqYTalhhL-18" value="消费日志管理" style="rounded=0;whiteSpace=wrap;html=1;dashed=1;" vertex="1" parent="1">
          <mxGeometry x="225" y="250" width="70" height="60" as="geometry" />
        </mxCell>
        <mxCell id="prOz0WuTz6ROqYTalhhL-19" value="采集设备信息" style="rounded=0;whiteSpace=wrap;html=1;dashed=1;fillColor=#e1d5e7;strokeColor=#9673a6;" vertex="1" parent="1">
          <mxGeometry x="379" y="170" width="70" height="60" as="geometry" />
        </mxCell>
        <mxCell id="prOz0WuTz6ROqYTalhhL-20" value="权限请求" style="rounded=0;whiteSpace=wrap;html=1;dashed=1;fillColor=#e1d5e7;strokeColor=#9673a6;" vertex="1" parent="1">
          <mxGeometry x="480" y="170" width="70" height="60" as="geometry" />
        </mxCell>
        <mxCell id="prOz0WuTz6ROqYTalhhL-21" value="故障上报" style="rounded=0;whiteSpace=wrap;html=1;dashed=1;fillColor=#e1d5e7;strokeColor=#9673a6;" vertex="1" parent="1">
          <mxGeometry x="379" y="250" width="70" height="60" as="geometry" />
        </mxCell>
        <mxCell id="prOz0WuTz6ROqYTalhhL-22" value="生产日志管理" style="rounded=0;whiteSpace=wrap;html=1;dashed=1;fillColor=#e1d5e7;strokeColor=#9673a6;" vertex="1" parent="1">
          <mxGeometry x="480" y="250" width="70" height="60" as="geometry" />
        </mxCell>
      </root>
    </mxGraphModel>
  </diagram>
</mxfile>
